<svg width="98" height="29" viewBox="0 0 98 29" fill="none" xmlns="http://www.w3.org/2000/svg">
<path fill-rule="evenodd" clip-rule="evenodd" d="M60.6667 0.140625H64.2963V27.6221H60.6667V0.140625ZM40.4444 18.8073C40.4444 21.227 41.7193 26.6162 46.6667 26.0665C51.3333 25.548 51.8518 21.3999 51.8518 21.3999H55.4815C55.4815 22.9554 53.1786 28.1406 46.6667 28.1406C39.4074 28.1406 36.2963 22.4369 36.2963 18.8073C36.2963 15.1776 37.3333 8.43692 46.6667 8.43692C54.1333 8.43692 56 14.6591 56 18.8073H40.4444ZM51.8518 16.7332H40.4444C40.7901 14.6591 41.4815 10.511 46.6667 10.511C51.1223 10.511 51.8518 15.6962 51.8518 16.7332ZM72.5926 0.140625H69.4815H68.963V27.6221H72.5926V0.140625ZM25.9259 8.95543L27.4815 14.1406C27.8272 12.4122 31.1111 7.91841 35.2593 8.95543V12.585C32.8395 12.2394 28 13.311 28 18.2887V27.6221H24.3704V8.95543H25.9259ZM93.8519 12.585L95.4074 8.95543H97.4815V27.7318L93.3333 27.6221V24.511C92.642 25.7208 90.4296 28.1406 87.1111 28.1406C82.963 28.1406 76.7407 26.0665 76.7407 18.2887C76.7407 10.511 82.963 7.91841 87.1111 8.4369C90.404 8.84851 92.9877 11.2023 93.8519 12.585ZM93.3333 18.2887C93.3333 13.311 89.7037 10.511 87.1111 10.511C84 10.511 80.8889 12.4813 80.8889 18.2887C80.8889 24.0961 84 26.0665 87.1111 26.0665C89.1852 26.0665 93.3333 23.2665 93.3333 18.2887ZM0 27.6221V1.69618H12.4444C15.5556 1.69618 18.6667 3.25174 18.6667 7.91841C18.6667 12.585 14.5185 13.6221 12.4444 14.1406C14.8642 14.1406 19.7037 15.4887 19.7037 20.8813C19.7037 26.2739 15.2099 27.6221 12.963 27.6221H0ZM4.14815 3.77026V13.1036H10.8889C12.4444 13.1036 14.5185 10.511 14.5185 7.91841C14.5185 5.27447 11.9259 3.77026 10.3704 3.77026H4.14815ZM4.14815 15.1776V25.548H11.4074C13.1358 25.2023 15.5556 23.785 15.5556 20.8813C15.5556 17.2517 12.963 15.1776 10.3704 15.1776H4.14815Z" fill="white"/>
</svg>
